<?xml version="1.0" standalone="no"?><!DOCTYPE svg PUBLIC "-//W3C//DTD SVG 1.1//EN" "http://www.w3.org/Graphics/SVG/1.1/DTD/svg11.dtd"><svg t="1620129982020" class="icon" viewBox="0 0 1024 1024" version="1.1" xmlns="http://www.w3.org/2000/svg" p-id="1451" xmlns:xlink="http://www.w3.org/1999/xlink" width="200" height="200"><defs><style type="text/css"></style></defs><path d="M751.233707 88.910507a270.626133 270.626133 0 0 0-183.125334 71.420586l-55.610026 55.61344-78.578347-72.239786a29.65504 29.65504 0 0 0-5.986987-5.833387c-121.791147-85.6064-289.90464-56.285867-375.497386 65.501867a269.421227 269.421227 0 0 0-49.01888 154.92096c0 91.876693 38.12352 139.496107 78.240426 189.42976l340.609707 344.296106c39.79264 49.65376 112.288427 57.644373 161.942187 17.83808a114.623147 114.623147 0 0 0 17.85856-17.83808l338.773333-342.289066A283.006293 283.006293 0 0 0 1020.586667 358.294187c-0.26624-148.67456-120.712533-269.100373-269.35296-269.38368z" p-id="1452"></path></svg>